# xmcd
#
# Track frame offsets: 
#        150
#        17561
#        29934
#        45832
#        79873
#        96454
#        111773
#        130527
#        153171
#        180694
#        207537
#        232482
#        285880
#        299301
#        319697
#        341295
#        352092
#
# Disc length: 4782 seconds
#
# Revision: 0
# Processed by: cddbd v1.5.2PL0 Copyright (c) Steve Scherf et al.
# Submitted via: ExactAudioCopy v0.95b3
#
DISCID=f512ac11
DTITLE=Various Artists  - Woodstock Missing Tracks
DYEAR=1900
DGENRE=
TTITLE0=I Can't Make It Anymore
TTITLE1=If I Were A Carpenter
TTITLE2=Walking Down The Line
TTITLE3=Leaving This Town
TTITLE4=Southbound Train
TTITLE5=Ninety-Nine And A Half (Won't Do)
TTITLE6=Try
TTITLE7=Love City
TTITLE8=Eskimo Blue Day
TTITLE9=Uncle Sam Blues
TTITLE10=I Shall Be Released
TTITLE11=I'm Going Home
TTITLE12=Long Black Veil
TTITLE13=The Weight
TTITLE14=Loving You Is Sweeter Than Ever
TTITLE15=Blackbird
TTITLE16=Find The Cost Of Freedom
EXTD=
EXTT0=
EXTT1=
EXTT2=
EXTT3=
EXTT4=
EXTT5=
EXTT6=
EXTT7=
EXTT8=
EXTT9=
EXTT10=
EXTT11=
EXTT12=
EXTT13=
EXTT14=
EXTT15=
EXTT16=
PLAYORDER=
